<mxfile host="65bd71144e">
    <diagram id="gHRoXlxSw8PifER9hqir" name="第1頁">
        <mxGraphModel dx="756" dy="563" grid="1" gridSize="10" guides="1" tooltips="1" connect="1" arrows="1" fold="1" page="1" pageScale="1" pageWidth="827" pageHeight="1169" math="0" shadow="0">
            <root>
                <mxCell id="0"/>
                <mxCell id="1" parent="0"/>
                <mxCell id="2" value="" style="strokeWidth=1;shadow=0;dashed=0;align=center;html=1;shape=mxgraph.mockup.containers.browserWindow;rSize=0;strokeColor=#666666;strokeColor2=#008cff;strokeColor3=#c4c4c4;mainText=,;recursiveResize=0;" parent="1" vertex="1">
                    <mxGeometry x="27" y="160" width="800" height="549.82" as="geometry"/>
                </mxCell>
                <mxCell id="3" value="亞東紀念醫院" style="strokeWidth=1;shadow=0;dashed=0;align=center;html=1;shape=mxgraph.mockup.containers.anchor;fontSize=17;fontColor=#666666;align=left;" parent="2" vertex="1">
                    <mxGeometry x="60" y="12" width="110" height="26" as="geometry"/>
                </mxCell>
                <mxCell id="4" value="https://www.femh.org.tw/mainpage/index" style="strokeWidth=1;shadow=0;dashed=0;align=center;html=1;shape=mxgraph.mockup.containers.anchor;rSize=0;fontSize=17;fontColor=#666666;align=left;" parent="2" vertex="1">
                    <mxGeometry x="130" y="60" width="250" height="26" as="geometry"/>
                </mxCell>
                <mxCell id="13" value="" style="strokeWidth=1;shadow=0;dashed=0;align=center;html=1;shape=mxgraph.mockup.forms.rrect;rSize=0;strokeColor=#999999;" parent="2" vertex="1">
                    <mxGeometry x="360" y="110" width="440" height="30" as="geometry"/>
                </mxCell>
                <mxCell id="14" value="English" style="strokeColor=inherit;fillColor=inherit;gradientColor=inherit;strokeWidth=1;shadow=0;dashed=0;align=center;html=1;shape=mxgraph.mockup.forms.rrect;rSize=0;fontSize=17;fontColor=#666666;" parent="13" vertex="1">
                    <mxGeometry width="73.33333333333334" height="30" as="geometry"/>
                </mxCell>
                <mxCell id="15" value="交通資訊" style="strokeColor=inherit;fillColor=inherit;gradientColor=inherit;strokeWidth=1;shadow=0;dashed=0;align=center;html=1;shape=mxgraph.mockup.forms.rrect;rSize=0;fontSize=17;fontColor=#666666;" parent="13" vertex="1">
                    <mxGeometry x="73.33333333333334" width="73.33333333333334" height="30" as="geometry"/>
                </mxCell>
                <mxCell id="16" value="'網站導覽" style="strokeColor=inherit;fillColor=inherit;gradientColor=inherit;strokeWidth=1;shadow=0;dashed=0;align=center;html=1;shape=mxgraph.mockup.forms.rrect;rSize=0;fontSize=17;fontColor=#666666;" parent="13" vertex="1">
                    <mxGeometry x="146.66666666666669" width="73.33333333333334" height="30" as="geometry"/>
                </mxCell>
                <mxCell id="17" value="徵才資訊" style="strokeColor=inherit;fillColor=inherit;gradientColor=inherit;strokeWidth=1;shadow=0;dashed=0;align=center;html=1;shape=mxgraph.mockup.forms.rrect;rSize=0;fontSize=17;fontColor=#666666;" parent="13" vertex="1">
                    <mxGeometry x="220.00000000000003" width="73.33333333333334" height="30" as="geometry"/>
                </mxCell>
                <mxCell id="18" value="企業社會" style="strokeColor=inherit;fillColor=inherit;gradientColor=inherit;strokeWidth=1;shadow=0;dashed=0;align=center;html=1;shape=mxgraph.mockup.forms.rrect;rSize=0;fontSize=17;fontColor=#666666;" parent="13" vertex="1">
                    <mxGeometry x="293.33333333333337" width="73.33333333333334" height="30" as="geometry"/>
                </mxCell>
                <mxCell id="19" value="字級設定" style="strokeColor=inherit;fillColor=inherit;gradientColor=inherit;strokeWidth=1;shadow=0;dashed=0;align=center;html=1;shape=mxgraph.mockup.forms.rrect;rSize=0;fontSize=17;fontColor=#666666;" parent="13" vertex="1">
                    <mxGeometry x="366.6666666666667" width="73.33333333333334" height="30" as="geometry"/>
                </mxCell>
                <mxCell id="20" value="" style="shape=ext;double=1;rounded=0;whiteSpace=wrap;html=1;" parent="2" vertex="1">
                    <mxGeometry x="50" y="160" width="143" height="80" as="geometry"/>
                </mxCell>
                <mxCell id="12" value="LOGO" style="text;strokeColor=none;fillColor=none;html=1;fontSize=24;fontStyle=1;verticalAlign=middle;align=center;" parent="2" vertex="1">
                    <mxGeometry x="46.5" y="170" width="150" height="60" as="geometry"/>
                </mxCell>
                <mxCell id="5" value="" style="strokeWidth=1;shadow=0;dashed=0;align=center;html=1;shape=mxgraph.mockup.forms.rrect;rSize=0;strokeColor=#999999;" parent="2" vertex="1">
                    <mxGeometry x="223" y="210" width="437" height="20" as="geometry"/>
                </mxCell>
                <mxCell id="6" value="認識亞東" style="strokeColor=inherit;fillColor=inherit;gradientColor=inherit;strokeWidth=1;shadow=0;dashed=0;align=center;html=1;shape=mxgraph.mockup.forms.rrect;rSize=0;fontSize=17;fontColor=#666666;" parent="5" vertex="1">
                    <mxGeometry width="72.83333333333334" height="20" as="geometry"/>
                </mxCell>
                <mxCell id="7" value="網路掛號" style="strokeColor=inherit;fillColor=inherit;gradientColor=inherit;strokeWidth=1;shadow=0;dashed=0;align=center;html=1;shape=mxgraph.mockup.forms.rrect;rSize=0;fontSize=17;fontColor=#666666;" parent="5" vertex="1">
                    <mxGeometry x="72.83333333333334" width="72.83333333333334" height="20" as="geometry"/>
                </mxCell>
                <mxCell id="8" value="就醫指南" style="strokeColor=inherit;fillColor=inherit;gradientColor=inherit;strokeWidth=1;shadow=0;dashed=0;align=center;html=1;shape=mxgraph.mockup.forms.rrect;rSize=0;fontSize=17;fontColor=#666666;" parent="5" vertex="1">
                    <mxGeometry x="145.66666666666669" width="72.83333333333334" height="20" as="geometry"/>
                </mxCell>
                <mxCell id="9" value="醫療團隊" style="strokeColor=inherit;fillColor=inherit;gradientColor=inherit;strokeWidth=1;shadow=0;dashed=0;align=center;html=1;shape=mxgraph.mockup.forms.rrect;rSize=0;fontSize=17;fontColor=#666666;" parent="5" vertex="1">
                    <mxGeometry x="218.50000000000003" width="72.83333333333334" height="20" as="geometry"/>
                </mxCell>
                <mxCell id="10" value="特色醫療" style="strokeColor=inherit;fillColor=inherit;gradientColor=inherit;strokeWidth=1;shadow=0;dashed=0;align=center;html=1;shape=mxgraph.mockup.forms.rrect;rSize=0;fontSize=17;fontColor=#666666;" parent="5" vertex="1">
                    <mxGeometry x="291.33333333333337" width="72.83333333333334" height="20" as="geometry"/>
                </mxCell>
                <mxCell id="11" value="亞東訊息" style="strokeColor=inherit;fillColor=inherit;gradientColor=inherit;strokeWidth=1;shadow=0;dashed=0;align=center;html=1;shape=mxgraph.mockup.forms.rrect;rSize=0;fontSize=17;fontColor=#666666;" parent="5" vertex="1">
                    <mxGeometry x="364.1666666666667" width="72.83333333333334" height="20" as="geometry"/>
                </mxCell>
                <mxCell id="23" value="" style="verticalLabelPosition=bottom;shadow=0;dashed=0;align=center;html=1;verticalAlign=top;strokeWidth=1;shape=mxgraph.mockup.graphics.simpleIcon;strokeColor=#999999;" parent="2" vertex="1">
                    <mxGeometry y="250" width="800" height="240" as="geometry"/>
                </mxCell>
                <mxCell id="24" value="" style="strokeWidth=1;shadow=0;dashed=0;align=center;html=1;shape=mxgraph.mockup.forms.rrect;rSize=0;strokeColor=#999999;" parent="2" vertex="1">
                    <mxGeometry x="203" y="510" width="498" height="30" as="geometry"/>
                </mxCell>
                <mxCell id="25" value="網路掛號" style="strokeColor=inherit;fillColor=inherit;gradientColor=inherit;strokeWidth=1;shadow=0;dashed=0;align=center;html=1;shape=mxgraph.mockup.forms.rrect;rSize=0;fontSize=17;fontColor=#666666;" parent="24" vertex="1">
                    <mxGeometry width="83" height="30" as="geometry"/>
                </mxCell>
                <mxCell id="26" value="慢籤預約" style="strokeColor=inherit;fillColor=inherit;gradientColor=inherit;strokeWidth=1;shadow=0;dashed=0;align=center;html=1;shape=mxgraph.mockup.forms.rrect;rSize=0;fontSize=17;fontColor=#666666;" parent="24" vertex="1">
                    <mxGeometry x="83" width="83" height="30" as="geometry"/>
                </mxCell>
                <mxCell id="27" value="尋找醫生" style="strokeColor=inherit;fillColor=inherit;gradientColor=inherit;strokeWidth=1;shadow=0;dashed=0;align=center;html=1;shape=mxgraph.mockup.forms.rrect;rSize=0;fontSize=17;fontColor=#666666;" parent="24" vertex="1">
                    <mxGeometry x="166" width="83" height="30" as="geometry"/>
                </mxCell>
                <mxCell id="28" value="進度查詢" style="strokeColor=inherit;fillColor=inherit;gradientColor=inherit;strokeWidth=1;shadow=0;dashed=0;align=center;html=1;shape=mxgraph.mockup.forms.rrect;rSize=0;fontSize=17;fontColor=#666666;" parent="24" vertex="1">
                    <mxGeometry x="249" width="83" height="30" as="geometry"/>
                </mxCell>
                <mxCell id="29" value="交通資訊" style="strokeColor=inherit;fillColor=inherit;gradientColor=inherit;strokeWidth=1;shadow=0;dashed=0;align=center;html=1;shape=mxgraph.mockup.forms.rrect;rSize=0;fontSize=17;fontColor=#666666;" parent="24" vertex="1">
                    <mxGeometry x="332" width="83" height="30" as="geometry"/>
                </mxCell>
                <mxCell id="30" value="..." style="strokeColor=inherit;fillColor=inherit;gradientColor=inherit;strokeWidth=1;shadow=0;dashed=0;align=center;html=1;shape=mxgraph.mockup.forms.rrect;rSize=0;fontSize=17;fontColor=#666666;" parent="24" vertex="1">
                    <mxGeometry x="415" width="83" height="30" as="geometry"/>
                </mxCell>
            </root>
        </mxGraphModel>
    </diagram>
</mxfile>